Coordinates
version=1
nRows=26
nColumns=30
inDegrees=yes

Units are S.I. units (second, meters, Newtons, ...)
Angles are in degrees.

endheader
time	floatyaw	floatroll	floatpitch	floatx	floaty	floatz	pro_sup_l	deviation_l	flexion_l	cmc_flexion_l	cmc_abduction_l	mp_flexion_l	ip_flexion_l	2mcp_flexion_l	2mcp_abduction_l	2pm_flexion_l	2md_flexion_l	3mcp_flexion_l	3mcp_abduction_l	3pm_flexion_l	3md_flexion_l	4mcp_flexion_l	4mcp_abduction_l	4pm_flexion_l	4md_flexion_l	5mcp_flexion_l	5mcp_abduction_l	5pm_flexion_l	5md_flexion_l
-1.495000	-0.679314	-3.115271	87.889519	-0.009239	-0.228838	0.003886	86.907905	-0.070129	-5.027407	26.486753	1.260791	-19.073108	-33.087848	16.839943	5.558290	33.298989	20.655690	4.324240	3.704053	38.004071	21.343528	-7.674523	-2.970522	57.058734	28.726026	-24.261982	-7.345035	66.796324	38.957301
-1.485000	-0.679314	-3.115271	87.889519	-0.009168	-0.228779	0.003792	86.899837	-0.044654	-4.999064	26.457443	1.291583	-19.046840	-33.013227	16.780941	5.559865	33.389539	20.696778	4.218007	3.704429	38.165381	21.384052	-7.764041	-2.984798	57.259411	28.702821	-24.318920	-7.323376	67.026644	38.857253
-1.475000	-0.679314	-3.115271	87.889519	-0.009107	-0.228733	0.003707	86.902010	-0.019690	-4.979375	26.436899	1.315510	-19.025006	-32.957599	16.729534	5.564758	33.464795	20.736359	4.136691	3.705050	38.291430	21.436436	-7.839777	-2.992555	57.420511	28.716992	-24.346663	-7.307794	67.197483	38.815391
-1.465000	-0.679314	-3.115271	87.889519	-0.009062	-0.228705	0.003644	86.919959	0.001582	-4.976801	26.434035	1.337284	-19.015535	-32.934371	16.704395	5.575389	33.513687	20.766912	4.100836	3.706715	38.368139	21.489001	-7.876095	-2.993452	57.522734	28.757064	-24.331613	-7.298852	67.312109	38.811264
-1.455000	-0.679314	-3.115271	87.889519	-0.009035	-0.228699	0.003612	86.952381	0.016387	-4.992726	26.448116	1.359046	-19.021359	-32.942534	16.715295	5.590759	33.527233	20.780495	4.114472	3.708713	38.392352	21.528420	-7.864681	-2.989380	57.557450	28.804623	-24.273358	-7.290897	67.374981	38.819459
-1.445000	-0.679314	-3.115271	87.889519	-0.009028	-0.228711	0.003610	86.991297	0.023261	-5.020250	26.468873	1.378387	-19.038918	-32.966962	16.758928	5.606673	33.500912	20.772878	4.164096	3.708938	38.371250	21.545781	-7.818408	-2.983528	57.528365	28.844024	-24.187982	-7.275973	67.390741	38.822901
-1.435000	-0.679314	-3.115271	87.889519	-0.009044	-0.228735	0.003634	87.024938	0.022311	-5.046910	26.481407	1.390171	-19.059958	-32.986268	16.820395	5.617710	33.437454	20.746062	4.226093	3.704574	38.319118	21.538942	-7.765219	-2.978537	57.451113	28.867389	-24.103122	-7.248774	67.365377	38.817665
-1.425000	-0.679314	-3.115271	87.889519	-0.009078	-0.228760	0.003674	87.042388	0.014821	-5.060184	26.473881	1.390113	-19.075700	-32.984488	16.880014	5.619855	33.347143	20.707963	4.278660	3.693254	38.251621	21.511287	-7.734801	-2.974989	57.348983	28.874573	-24.046577	-7.209938	67.306384	38.809650
-1.415000	-0.679314	-3.115271	87.889519	-0.009124	-0.228776	0.003723	87.038102	0.002548	-5.053120	26.444482	1.377485	-19.081239	-32.960605	16.922315	5.612527	33.244351	20.669700	4.311666	3.674396	38.179612	21.469432	-7.744403	-2.971357	57.244739	28.870859	-24.033946	-7.166263	67.220783	38.807964
-1.405000	-0.679314	-3.115271	87.889519	-0.009175	-0.228780	0.003775	87.013948	-0.012823	-5.026951	26.403282	1.355292	-19.077651	-32.929490	16.941722	5.598917	33.143024	20.641708	4.328142	3.650113	38.106986	21.421503	-7.791940	-2.965523	57.153191	28.863746	-24.062454	-7.127956	67.113530	38.818496
-1.395000	-0.679314	-3.115271	87.889519	-0.009223	-0.228771	0.003826	86.977719	-0.029783	-4.989343	26.367348	1.328183	-19.070644	-32.913008	16.941683	5.584351	33.054635	20.630125	4.336991	3.624977	38.034650	21.375755	-7.860042	-2.956701	57.079397	28.859003	-24.114254	-7.104208	66.989119	38.839492
-1.385000	-0.679314	-3.115271	87.889519	-0.009262	-0.228754	0.003873	86.939377	-0.046803	-4.950154	26.352444	1.300124	-19.067131	-32.928045	16.929458	5.573631	32.988778	20.634989	4.344095	3.604455	37.966466	21.338905	-7.926420	-2.946287	57.022012	28.857510	-24.165456	-7.099175	66.855168	38.861334
-1.375000	-0.679314	-3.115271	87.889519	-0.009289	-0.228734	0.003915	86.907510	-0.062212	-4.917914	26.366808	1.273821	-19.072086	-32.980215	16.911564	5.569001	32.953808	20.651042	4.349774	3.592775	37.910730	21.314609	-7.972468	-2.937033	56.977248	28.855488	-24.194154	-7.110366	66.723829	38.871666
-1.365000	-0.679314	-3.115271	87.889519	-0.009302	-0.228717	0.003945	86.887515	-0.074336	-4.898297	26.409593	1.251630	-19.086871	-33.065382	16.892272	5.569777	32.955619	20.670604	4.352933	3.591484	37.875718	21.303084	-7.986742	-2.931293	56.940850	28.848432	-24.184773	-7.130285	66.608807	38.862888
-1.355000	-0.679314	-3.115271	87.889519	-0.009301	-0.228704	0.003960	86.881254	-0.081848	-4.893560	26.472621	1.235684	-19.108860	-33.173914	16.873711	5.573411	32.995079	20.686925	4.355182	3.599533	37.863935	21.302148	-7.966074	-2.929732	56.909226	28.835656	-24.131253	-7.150288	66.520058	38.836463
-1.345000	-0.679314	-3.115271	87.889519	-0.009290	-0.228697	0.003957	86.887208	-0.084161	-4.901961	26.543372	1.226242	-19.132187	-33.292935	16.855783	5.577056	33.065926	20.696555	4.359662	3.614614	37.870222	21.308967	-7.916940	-2.931314	56.881036	28.821840	-24.041021	-7.164427	66.460276	38.801289
-1.335000	-0.679314	-3.115271	87.889519	-0.009273	-0.228694	0.003938	86.900742	-0.081680	-4.918111	26.608638	1.220555	-19.149926	-33.407301	16.836783	5.578842	33.154526	20.700016	4.366802	3.634615	37.884565	21.321509	-7.854938	-2.934387	56.858051	28.814809	-23.936326	-7.171225	66.425675	38.768743
-1.325000	-0.679314	-3.115271	87.889519	-0.009258	-0.228694	0.003908	86.915146	-0.075695	-4.935577	26.658977	1.215090	-19.157363	-33.502903	16.816444	5.578578	33.242155	20.700560	4.373360	3.658100	37.896636	21.338938	-7.798625	-2.938003	56.843388	28.821625	-23.847361	-7.172892	66.410389	38.748848
-1.315000	-0.679314	-3.115271	87.889519	-0.009248	-0.228700	0.003875	86.924263	-0.067801	-4.950968	26.692899	1.209896	-19.154605	-33.572743	16.800079	5.577801	33.309669	20.701390	4.377204	3.683725	37.898961	21.360743	-7.758919	-2.942667	56.837633	28.845403	-23.797263	-7.172906	66.411382	38.748944
-1.305000	-0.679314	-3.115271	87.889519	-0.009244	-0.228715	0.003844	86.925970	-0.059148	-4.966404	26.717974	1.210438	-19.146343	-33.621156	16.799422	5.579147	33.343179	20.702800	4.383098	3.709478	37.887787	21.385347	-7.731491	-2.950148	56.835809	28.884182	-23.788034	-7.173612	66.430034	38.772952
-1.295000	-0.679314	-3.115271	87.889519	-0.009243	-0.228741	0.003814	86.923818	-0.050093	-4.987845	26.746408	1.224354	-19.138278	-33.660638	16.827525	5.585212	33.338036	20.701462	4.402694	3.732669	37.862396	21.409856	-7.699292	-2.962553	56.827786	28.932393	-23.798533	-7.175116	66.468468	38.819791
-1.285000	-0.679314	-3.115271	87.889519	-0.009242	-0.228776	0.003786	86.924503	-0.040578	-5.020049	26.786419	1.255891	-19.132588	-33.701407	16.890409	5.597461	33.298916	20.692970	4.447059	3.750825	37.824192	21.431710	-7.644735	-2.981140	56.802398	28.984228	-23.797621	-7.175840	66.522835	38.882272
-1.275000	-0.679314	-3.115271	87.889519	-0.009235	-0.228813	0.003754	86.932198	-0.030931	-5.061639	26.835021	1.302562	-19.126035	-33.740849	16.981074	5.615709	33.236699	20.675931	4.516663	3.762735	37.776910	21.450684	-7.563621	-3.005442	56.753840	29.036122	-23.764445	-7.173990	66.579691	38.948343
-1.265000	-0.679314	-3.115271	87.889519	-0.009225	-0.228845	0.003717	86.944067	-0.022309	-5.103712	26.877886	1.355580	-19.112351	-33.761080	17.079366	5.638242	33.165519	20.654115	4.595937	3.768720	37.728538	21.468432	-7.471818	-3.033104	56.688114	29.085107	-23.703067	-7.168821	66.620957	39.004034
-1.255000	-0.679314	-3.115271	87.889519	-0.009214	-0.228863	0.003675	86.950969	-0.016345	-5.133073	26.896944	1.402829	-19.087104	-33.737185	17.157579	5.662323	33.102154	20.634757	4.656929	3.769945	37.693072	21.485147	-7.400221	-3.060540	56.625728	29.123677	-23.642238	-7.161047	66.636027	39.035980
-1.245000	-0.679314	-3.115271	87.889519	-0.009204	-0.228865	0.003631	86.943355	-0.014250	-5.138584	26.880832	1.433118	-19.051571	-33.651537	17.189833	5.684958	33.065752	20.624517	4.671650	3.767448	37.688245	21.496594	-7.379674	-3.084078	56.596070	29.137073	-23.619546	-7.152470	66.631718	39.033211
